<svg xmlns="http://www.w3.org/2000/svg" width="400" height="400" viewBox="0 0 400 400"><rect width="100%" height="100%" fill="#DDDDDD"/><path fill="#999999" d="M90.065 213.355h15.02v5.77h-22.02v-37.6h7v31.83Zm24.07-10.64h12.12q0-1.24-.35-2.35-.35-1.1-1.06-1.94-.7-.83-1.78-1.31-1.08-.48-2.51-.48-2.78 0-4.38 1.59-1.6 1.58-2.04 4.49Zm16.38 3.88h-16.51q.16 2.05.73 3.55.57 1.49 1.51 2.47.93.97 2.22 1.45t2.85.48q1.56 0 2.69-.36t1.98-.81q.84-.44 1.48-.8.63-.37 1.23-.37.81 0 1.2.6l1.84 2.34q-1.06 1.25-2.39 2.09-1.32.85-2.77 1.36-1.44.5-2.93.71-1.5.21-2.9.21-2.79 0-5.18-.92-2.39-.93-4.16-2.73-1.77-1.81-2.78-4.48-1.01-2.66-1.01-6.17 0-2.73.88-5.14.88-2.4 2.54-4.18 1.65-1.78 4.03-2.82 2.37-1.04 5.36-1.04 2.53 0 4.66.8 2.13.81 3.66 2.36 1.54 1.54 2.41 3.79.87 2.25.87 5.14 0 1.45-.31 1.96t-1.2.51Zm12.74-6.35v11.96q1.09 1.33 2.38 1.88 1.29.54 2.72.54 1.48 0 2.66-.53 1.19-.53 2.02-1.67.83-1.13 1.27-2.88.44-1.76.44-4.2 0-4.39-1.45-6.36-1.46-1.96-4.19-1.96-1.84 0-3.22.84-1.38.85-2.63 2.38Zm0-19.76v15.24q1.61-1.69 3.58-2.69 1.96-1 4.48-1 2.32 0 4.17.91 1.86.91 3.18 2.61 1.31 1.7 2.01 4.12.7 2.42.7 5.44 0 3.25-.8 5.9-.81 2.65-2.3 4.53-1.5 1.89-3.6 2.93-2.11 1.04-4.68 1.04-1.25 0-2.27-.25-1.01-.24-1.87-.69-.86-.44-1.57-1.08-.72-.63-1.37-1.41l-.28 1.79q-.16.68-.54.96-.37.29-1.02.29h-4.24v-38.64h6.42Zm34.89 11.55q2.97 0 5.4.96t4.16 2.73q1.73 1.77 2.66 4.32.94 2.54.94 5.69 0 3.17-.94 5.72-.93 2.55-2.66 4.34-1.73 1.8-4.16 2.76-2.43.96-5.4.96-2.99 0-5.43-.96-2.44-.96-4.17-2.76-1.73-1.79-2.68-4.34-.95-2.55-.95-5.72 0-3.15.95-5.69.95-2.55 2.68-4.32 1.73-1.77 4.17-2.73t5.43-.96Zm0 22.54q3.33 0 4.93-2.24 1.6-2.23 1.6-6.55 0-4.31-1.6-6.58-1.6-2.26-4.93-2.26-3.38 0-5 2.28-1.63 2.27-1.63 6.56 0 4.29 1.63 6.54 1.62 2.25 5 2.25Zm23.64-20.96.44 2.11q.81-.81 1.7-1.5.9-.68 1.9-1.17 1-.48 2.15-.75 1.14-.27 2.49-.27 2.19 0 3.88.74t2.82 2.08q1.13 1.34 1.71 3.2.59 1.86.59 4.09v16.98h-6.42v-16.98q0-2.44-1.12-3.78-1.12-1.34-3.41-1.34-1.66 0-3.12.75-1.45.76-2.75 2.06v19.29h-6.43v-26.68h3.93q1.25 0 1.64 1.17Zm44.56 2.14-1.69 2.34q-.28.36-.56.57-.27.21-.79.21-.49 0-.96-.3t-1.12-.68q-.65-.38-1.55-.68-.89-.29-2.22-.29-1.69 0-2.96.61-1.28.61-2.12 1.75-.85 1.15-1.26 2.77-.42 1.63-.42 3.68 0 2.13.46 3.8.45 1.66 1.31 2.79.86 1.13 2.08 1.72 1.22.58 2.75.58 1.54 0 2.49-.38.95-.37 1.6-.83.65-.45 1.13-.83.48-.38 1.08-.38.78 0 1.17.6l1.84 2.34q-1.06 1.25-2.31 2.09-1.25.85-2.59 1.36-1.34.5-2.75.71-1.42.21-2.83.21-2.47 0-4.65-.92-2.18-.93-3.82-2.69-1.64-1.77-2.59-4.33t-.95-5.84q0-2.94.85-5.45.84-2.51 2.48-4.34 1.64-1.83 4.06-2.87 2.41-1.04 5.56-1.04 2.99 0 5.24.96t4.04 2.76Zm16.07-3.72q2.96 0 5.4.96 2.43.96 4.16 2.73 1.72 1.77 2.66 4.32.94 2.54.94 5.69 0 3.17-.94 5.72t-2.66 4.34q-1.73 1.8-4.16 2.76-2.44.96-5.4.96-2.99 0-5.43-.96-2.45-.96-4.18-2.76-1.73-1.79-2.67-4.34-.95-2.55-.95-5.72 0-3.15.95-5.69.94-2.55 2.67-4.32 1.73-1.77 4.18-2.73 2.44-.96 5.43-.96Zm0 22.54q3.33 0 4.93-2.24 1.6-2.23 1.6-6.55 0-4.31-1.6-6.58-1.6-2.26-4.93-2.26-3.38 0-5 2.28-1.63 2.27-1.63 6.56 0 4.29 1.63 6.54 1.62 2.25 5 2.25Zm18.28-22.13h6.45v26.68h-6.45v-26.68Zm7.33-7.77q0 .83-.34 1.56-.34.73-.89 1.27-.56.55-1.32.87-.75.33-1.61.33-.83 0-1.57-.33-.74-.32-1.29-.87-.55-.54-.87-1.27-.33-.73-.33-1.56 0-.86.33-1.61.32-.76.87-1.3.55-.55 1.29-.87.74-.33 1.57-.33.86 0 1.61.33.76.32 1.32.87.55.54.89 1.3.34.75.34 1.61Zm11.23 8.94.44 2.11q.81-.81 1.71-1.5.89-.68 1.9-1.17 1-.48 2.14-.75 1.14-.27 2.5-.27 2.18 0 3.87.74t2.82 2.08q1.13 1.34 1.72 3.2.58 1.86.58 4.09v16.98h-6.42v-16.98q0-2.44-1.12-3.78-1.12-1.34-3.4-1.34-1.67 0-3.12.75-1.46.76-2.76 2.06v19.29h-6.42v-26.68h3.92q1.25 0 1.64 1.17Z"/></svg>